<svg xmlns="http://www.w3.org/2000/svg" version="1.0" preserveAspectRatio="xMidYMid meet" x="0px" y="0px" viewBox="-0.02 -0.02 383.93 383.95"><g transform="translate(-0.099184,384.042281) scale(0.100000,-0.100000)" stroke="none"><path d="M1710 3829 c-490 -57 -945 -300 -1258 -674 -487 -581 -588 -1382 -262 -2063 193 -401 501 -709 901 -901 682 -327 1483 -226 2064 261 431 360 685 906 685 1468 0 562 -254 1108 -685 1468 -400 336 -937 499 -1445 441z m1037 -1070 c-365 -213 -831 -479 -837 -479 -6 0 -472 266 -837 479 -13 7 245 10 837 10 592 0 850 -3 837 -10z m313 -974 l0 -725 -1140 0 -1140 0 0 721 0 721 57 -32 c32 -18 283 -162 559 -321 275 -159 507 -289 515 -289 8 0 266 146 574 325 308 178 563 324 568 325 4 0 7 -326 7 -725z"></path></g></svg>
